<svg width="28" height="25" viewBox="0 0 28 25" fill="none" xmlns="http://www.w3.org/2000/svg">
<path d="M3.25555 19.7718C2.56213 19.0783 2.56213 17.9541 3.25555 17.2607L19.9962 0.520064C20.6896 -0.173354 21.8138 -0.173355 22.5072 0.520063C23.2007 1.21348 23.2007 2.33774 22.5072 3.03115L5.76664 19.7718C5.07322 20.4652 3.94896 20.4652 3.25555 19.7718Z" fill="#D9D9D9"/>
<path d="M23.2555 19.8775C22.5621 20.571 21.4379 20.571 20.7445 19.8775L4.00385 3.13693C3.31043 2.44351 3.31043 1.31926 4.00384 0.625837C4.69726 -0.0675812 5.82152 -0.0675816 6.51494 0.625837L23.2555 17.3664C23.949 18.0599 23.949 19.1841 23.2555 19.8775Z" fill="#D9D9D9"/>
<path d="M0 23.0401C0 22.0595 0.794967 21.2645 1.77561 21.2645H25.4504C26.431 21.2645 27.226 22.0595 27.226 23.0401C27.226 24.0208 26.431 24.8157 25.4504 24.8157H1.77561C0.794969 24.8157 0 24.0208 0 23.0401Z" fill="#D9D9D9"/>
</svg>
