<svg width="28" height="21" viewBox="0 0 28 21" fill="none" xmlns="http://www.w3.org/2000/svg">
<path d="M0 1.77561C0 0.794968 0.794967 0 1.77561 0H25.4504C26.431 0 27.226 0.794968 27.226 1.77561C27.226 2.75625 26.431 3.55122 25.4504 3.55122H1.77561C0.794969 3.55122 0 2.75625 0 1.77561Z" fill="#D9D9D9"/>
<path d="M0 10.0618C0 9.08115 0.794967 8.28618 1.77561 8.28618H25.4504C26.431 8.28618 27.226 9.08115 27.226 10.0618C27.226 11.0424 26.431 11.8374 25.4504 11.8374H1.77561C0.794969 11.8374 0 11.0424 0 10.0618Z" fill="#D9D9D9"/>
<path d="M0 18.348C0 17.3673 0.794967 16.5724 1.77561 16.5724H25.4504C26.431 16.5724 27.226 17.3673 27.226 18.348C27.226 19.3286 26.431 20.1236 25.4504 20.1236H1.77561C0.794969 20.1236 0 19.3286 0 18.348Z" fill="#D9D9D9"/>
</svg>
